# xmcd
# 
# Track frame offsets:
#     150
#     8270
#     19003
#     29673
#     40860
#     50613
#     59945
#     69153
#     81883
#     91215
#     103393
#     113395
# 
# Disc length: 1634
# 
# Revision: 1
# Processed by: cddbd v1.5.2PL0 Copyright (c) Steve Scherf et al.
# Submitted via: fre:ac v1.0.17
# 
DISCID=9306600c
DTITLE=Grandpa Jones - Mountain Dew
DYEAR=1968
DGENRE=Country
TTITLE0=Old Rattler
TTITLE1=Eight More Miles To Louisville
TTITLE2=Banjo Sam
TTITLE3=Night Train To Memphis
TTITLE4=Going Across The Sea
TTITLE5=Old Blue
TTITLE6=Mountain Dew
TTITLE7=King Of The Cannon County Hills
TTITLE8=Are You From Dixie
TTITLE9=Trouble In Mind
TTITLE10=Pretty Little Devilish Mary
TTITLE11=The Banjo Am The Instrument
EXTD=
EXTT0=
EXTT1=
EXTT2=
EXTT3=
EXTT4=
EXTT5=
EXTT6=
EXTT7=
EXTT8=
EXTT9=
EXTT10=
EXTT11=
PLAYORDER=
